# xmcd
#
# Track frame offsets:
#	150
#	18637
#	36105
#	50210
#	63445
#	78725
#	93830
#	106160
#	116407
#	130882
#
# Disc length: 1938 seconds
#
# Revision: 3
# Processed by: cddbd v1.5.2PL0 Copyright (c) Steve Scherf et al.
# Submitted via: audiograbber 1.83.01
#
DISCID=8307900a
DTITLE=Rhett Akins - Somebody New
DYEAR=1996
DGENRE=Country
TTITLE0=No Match
TTITLE1=Love You Back
TTITLE2=Somebody Knew
TTITLE3=K-i-s-s-i-n-g
TTITLE4=Don't Get Me Started
TTITLE5=Where Angels Live
TTITLE6=Too Much Texas
TTITLE7=Every Cowboy's Dream
TTITLE8=Carolina Line
TTITLE9=I Was Wrong
EXTD=
EXTT0=
EXTT1=
EXTT2=
EXTT3=
EXTT4=
EXTT5=
EXTT6=
EXTT7=
EXTT8=
EXTT9=
PLAYORDER=
